PathFileType	4	(X/Y/Z)	/Users/itak/Documents/Research/Walk-IL/dataset/trc/00472_00167.trc
DataRate	CameraRate	NumFrames	NumMarkers	Units	OrigDataRate	OrigDataStartFrame	OrigNumFrames
100.000000	100.000000	4	53	mm	100.000000	149	598
Frame#	Time	RPSI			LPSI			L3			STRN			T10			C7			CLAV			RBAK			LBAK			LSHO			LUPA			LAEL			LAOL			LWTS			LWPS			LFRA			LIFD			LHPS			LHTS			RSHO			RUPA			RAEL			RAOL			RWTS			RWPS			RFRA			RIFD			RHTS			RHPS			RBHD			LFHD			RFHD			LBHD			LHIP			RHIP			RASI			LASI			LKNE			LTHI			LANK			LTIP			LTOE			LMT1			LMT5			LHEE			RKNE			RTHI			RANK			RTIP			RTOE			RMT1			RMT5			RHEE			
		X1	Y1	Z1	X2	Y2	Z2	X3	Y3	Z3	X4	Y4	Z4	X5	Y5	Z5	X6	Y6	Z6	X7	Y7	Z7	X8	Y8	Z8	X9	Y9	Z9	X10	Y10	Z10	X11	Y11	Z11	X12	Y12	Z12	X13	Y13	Z13	X14	Y14	Z14	X15	Y15	Z15	X16	Y16	Z16	X17	Y17	Z17	X18	Y18	Z18	X19	Y19	Z19	X20	Y20	Z20	X21	Y21	Z21	X22	Y22	Z22	X23	Y23	Z23	X24	Y24	Z24	X25	Y25	Z25	X26	Y26	Z26	X27	Y27	Z27	X28	Y28	Z28	X29	Y29	Z29	X30	Y30	Z30	X31	Y31	Z31	X32	Y32	Z32	X33	Y33	Z33	X34	Y34	Z34	X35	Y35	Z35	X36	Y36	Z36	X37	Y37	Z37	X38	Y38	Z38	X39	Y39	Z39	X40	Y40	Z40	X41	Y41	Z41	X42	Y42	Z42	X43	Y43	Z43	X44	Y44	Z44	X45	Y45	Z45	X46	Y46	Z46	X47	Y47	Z47	X48	Y48	Z48	X49	Y49	Z49	X50	Y50	Z50	X51	Y51	Z51	X52	Y52	Z52	X53	Y53	Z53	

150	1.49	-1238.209716796875	953.6848754882812	-370.0807495117188	-1214.12158203125	945.112060546875	-510.6375732421875	-1208.185546875	1050.578125	-410.1128845214844	-915.156005859375	1226.232055664062	-393.5274353027344	-1209.184936523438	1174.518676757812	-406.0302734375	-1121.679931640625	1435.317138671875	-388.8099975585938	-943.2496337890625	1341.02099609375	-399.25390625	-1195.132568359375	1323.249755859375	-295.2439270019531	-1157.796508789062	1390.990844726562	-488.484619140625	-1052.482543945312	1404.276000976562	-565.3753051757812	-1072.759643554688	1291.424438476562	-665.044677734375	-1069.532836914062	1077.045776367188	-708.317626953125	-1146.385375976562	1066.992431640625	-640.54150390625	-998.435546875	871.7463989257812	-675.33740234375	-1048.619995117188	859.8939819335938	-730.0479736328125	-1053.84814453125	988.802734375	-721.8560791015625	-990.6455688476562	715.6141357421875	-700.1058959960938	-1040.879150390625	784.9586181640625	-736.3200073242188	-982.05029296875	790.0498046875	-693.627197265625	-1056.725341796875	1402.370849609375	-226.5995330810547	-1079.537231445312	1343.8623046875	-150.4742126464844	-1098.855834960938	1054.977661132812	-100.8484878540039	-1152.703857421875	1046.429443359375	-141.1034088134766	-1031.423095703125	835.4450073242188	-150.3201599121094	-1096.883911132812	832.1652221679688	-90.68408966064453	-1103.415283203125	996.839599609375	-91.64898681640625	-1055.101684570312	681.2971801757812	-138.5376892089844	-1031.390502929688	737.1732177734375	-139.0054626464844	-1095.703735351562	744.6181640625	-94.05435180664062	-1025.135498046875	1631.489990234375	-312.134033203125	-879.1690063476562	1625.635620117188	-459.0775451660156	-887.7781982421875	1632.197509765625	-328.8638000488281	-1029.182495117188	1628.312377929688	-489.5846862792969	-1042.791137695312	858.5823974609375	-604.6890258789062	-1157.5693359375	838.9946899414062	-219.7852935791016	-1038.132080078125	875.352294921875	-253.4935607910156	-982.8217163085938	892.2758178710938	-499.2550659179688	-845.5855712890625	485.8627319335938	-565.2566528320312	-880.73681640625	641.7661743164062	-579.8643188476562	-1060.811401367188	113.5590972900391	-588.1197509765625	-906.9964599609375	337.0007019042969	-589.60009765625	-838.994873046875	71.32943725585938	-528.2452392578125	-908.436767578125	79.16500091552734	-495.9235229492188	-916.3600463867188	85.33124542236328	-606.9583129882812	-1100.738647460938	125.58349609375	-522.8842163085938	-1167.57470703125	448.4798583984375	-265.3309020996094	-1127.174072265625	701.2479858398438	-209.4481353759766	-1311.246459960938	45.63991165161133	-294.41259765625	-1195.507690429688	302.8914184570312	-266.6750793457031	-1092.978271484375	48.99159622192383	-322.8548278808594	-1152.5751953125	49.50933074951172	-367.3875732421875	-1180.267333984375	51.4338264465332	-262.0875549316406	-1373.3515625	37.74309158325195	-344.9703063964844	
151	1.5	-1232.26318359375	953.7203979492188	-369.702392578125	-1208.3271484375	944.96826171875	-510.2078552246094	-1201.947387695312	1050.157470703125	-409.2671203613281	-909.3004150390625	1225.810302734375	-393.4733581542969	-1203.093872070312	1173.854248046875	-404.8697509765625	-1115.963500976562	1434.65380859375	-387.9888305664062	-937.504638671875	1340.566162109375	-399.119384765625	-1188.906982421875	1322.616943359375	-294.1758422851562	-1152.406127929688	1390.41259765625	-487.3460693359375	-1047.448364257812	1403.8916015625	-564.7267456054688	-1068.56884765625	1291.38525390625	-664.5577392578125	-1066.3798828125	1076.890625	-707.8627319335938	-1142.852905273438	1067.092407226562	-639.65673828125	-995.4744873046875	871.3427734375	-674.8502807617188	-1045.708862304688	859.552978515625	-729.4330444335938	-1050.859619140625	988.6091918945312	-721.38916015625	-988.022216796875	715.1981811523438	-699.1032104492188	-1038.135009765625	784.506591796875	-735.5529174804688	-979.3899536132812	789.5680541992188	-692.8368530273438	-1050.3515625	1401.90771484375	-226.0766906738281	-1072.955200195312	1343.604248046875	-149.7750091552734	-1092.693481445312	1054.762329101562	-99.92105102539062	-1146.558349609375	1046.340087890625	-140.1431884765625	-1025.986206054688	834.7559814453125	-149.1775360107422	-1091.37890625	831.8206176757812	-89.46794891357422	-1097.387451171875	996.6547241210938	-90.6513671875	-1050.808837890625	680.6972045898438	-137.8263854980469	-1026.690185546875	736.41845703125	-138.1049499511719	-1090.8408203125	744.2359619140625	-93.16629791259766	-1020.036254882812	1631.172241210938	-312.0734252929688	-874.1431274414062	1625.204345703125	-459.0610046386719	-882.7488403320312	1632.093872070312	-328.8555908203125	-1024.201782226562	1627.486694335938	-489.4885559082031	-1036.769775390625	858.9617309570312	-604.3916625976562	-1152.410400390625	838.6920166015625	-219.6533813476562	-1032.882568359375	874.285400390625	-253.1590728759766	-976.94775390625	892.4457397460938	-498.6376342773438	-836.8093872070312	487.1889953613281	-564.3373413085938	-873.8255615234375	643.0048828125	-578.6238403320312	-1036.1064453125	106.324462890625	-587.5963745117188	-892.0512084960938	336.1477966308594	-588.7926635742188	-813.1492919921875	72.78615570068359	-526.232666015625	-883.0537719726562	78.17855072021484	-494.3990173339844	-890.56591796875	83.78669738769531	-605.468505859375	-1076.8916015625	117.0094985961914	-522.636962890625	-1167.437255859375	448.5990600585938	-265.1598205566406	-1123.57958984375	700.849853515625	-209.0224304199219	-1311.240966796875	45.59806823730469	-294.3683471679688	-1195.666748046875	303.1531372070312	-266.4656677246094	-1092.990844726562	48.88773345947266	-322.5882568359375	-1152.581420898438	49.55136489868164	-367.197265625	-1180.240600585938	51.20935821533203	-261.7727966308594	-1373.326049804688	37.85319900512695	-344.9939575195312	
152	1.51	-1226.176513671875	953.467041015625	-369.3419189453125	-1202.392333984375	944.4430541992188	-509.802001953125	-1195.677734375	1049.44775390625	-408.4769592285156	-903.2882080078125	1225.078735351562	-393.4407958984375	-1196.8740234375	1172.934692382812	-403.8055419921875	-1110.06591796875	1433.738403320312	-387.2305908203125	-931.6021728515625	1339.808715820312	-399.0215148925781	-1182.55908203125	1321.73681640625	-293.1819458007812	-1146.81884765625	1389.544067382812	-486.2960815429688	-1042.223999023438	1403.167724609375	-564.1570434570312	-1064.19189453125	1290.963745117188	-664.115966796875	-1063.052490234375	1076.399291992188	-707.5	-1139.149169921875	1066.8369140625	-638.8674926757812	-992.3801879882812	870.6177368164062	-674.5116577148438	-1042.647338867188	858.9170532226562	-728.96044921875	-1047.708129882812	988.0853881835938	-721.029052734375	-985.2272338867188	714.4815063476562	-698.356689453125	-1035.264282226562	783.748046875	-734.9739379882812	-976.6029663085938	788.7633056640625	-692.2525024414062	-1043.819213867188	1401.145751953125	-225.6040802001953	-1066.22802734375	1343.029541015625	-149.1331176757812	-1086.330444335938	1054.23046875	-98.96275329589844	-1140.233520507812	1045.9111328125	-139.1165161132812	-1020.158020019531	833.857666015625	-148.0522766113281	-1085.47998046875	831.1717529296875	-88.23291778564453	-1091.133911132812	996.151123046875	-89.61383056640625	-1045.974487304688	679.86572265625	-137.1841278076172	-1021.517883300781	735.4589233398438	-137.2632598876953	-1085.48779296875	743.5545043945312	-92.27531433105469	-1014.753356933594	1630.54931640625	-312.0670776367188	-868.99267578125	1624.590576171875	-459.1612243652344	-877.554931640625	1631.799194335938	-328.9607543945312	-1019.118591308594	1626.394409179688	-489.4579772949219	-1030.598510742188	858.8648071289062	-604.1403198242188	-1147.007446289062	838.2313232421875	-219.4872283935547	-1027.388427734375	873.0712890625	-252.9210968017578	-970.8804931640625	892.3251953125	-498.1388549804688	-828.2014770507812	488.0516662597656	-563.451416015625	-867.0253295898438	643.656005859375	-577.3585205078125	-1010.476440429688	99.07454681396484	-587.6893310546875	-876.828125	335.0755615234375	-588.1764526367188	-786.7962036132812	74.50904846191406	-524.376708984375	-857.167236328125	77.35260009765625	-493.1773071289062	-864.0133056640625	82.48176574707031	-604.2720336914062	-1052.213012695312	108.2586135864258	-523.1084594726562	-1167.037231445312	448.6225891113281	-265.0290832519531	-1119.692260742188	700.2971801757812	-208.6105194091797	-1311.237060546875	45.57122039794922	-294.3424987792969	-1195.655517578125	303.3412170410156	-266.3077392578125	-1093.000244140625	48.79108428955078	-322.3495178222656	-1152.588134765625	49.58339691162109	-367.0292663574219	-1180.225830078125	51.01285934448242	-261.4850769042969	-1373.309448242188	37.96525192260742	-345.0258483886719	
153	1.52	-1219.954467773438	952.9158935546875	-369.0171508789062	-1196.297973632812	943.551025390625	-509.4399108886719	-1189.37255859375	1048.436645507812	-407.7727355957031	-897.132080078125	1224.036254882812	-393.4378967285156	-1190.54052734375	1171.75	-402.8509216308594	-1103.992553710938	1432.57275390625	-386.541748046875	-925.5484008789062	1338.748413085938	-398.9664611816406	-1176.098999023438	1320.607299804688	-292.2764282226562	-1141.03955078125	1388.3818359375	-485.3524780273438	-1036.817993164062	1402.1015625	-563.6791381835938	-1059.61962890625	1290.150024414062	-663.7166748046875	-1059.53076171875	1075.560791015625	-707.2230224609375	-1135.255126953125	1066.214233398438	-638.162841796875	-989.1329956054688	869.5629272460938	-674.3363037109375	-1039.44921875	857.9816284179688	-728.6356811523438	-1044.381958007812	987.2192993164062	-720.7745971679688	-982.2720336914062	713.4430541992188	-697.90380859375	-1032.296752929688	782.6851806640625	-734.5841064453125	-973.66357421875	787.6278076171875	-691.91455078125	-1037.139404296875	1400.082275390625	-225.1864471435547	-1059.360717773438	1342.12548828125	-148.5614776611328	-1079.738891601562	1053.378540039062	-97.99595642089844	-1133.701049804688	1045.13623046875	-138.0476379394531	-1013.939880371094	832.7363891601562	-146.945556640625	-1079.18798828125	830.2206420898438	-86.98145294189453	-1084.631225585938	995.3270263671875	-88.55093383789062	-1040.595947265625	678.7921142578125	-136.5515899658203	-1015.866088867188	734.2882080078125	-136.4456939697266	-1079.646850585938	742.5755004882812	-91.3402099609375	-1009.281982421875	1629.618041992188	-312.1155700683594	-863.7064819335938	1623.794799804688	-459.3679809570312	-872.1771240234375	1631.308837890625	-329.1713256835938	-1013.910827636719	1625.032958984375	-489.4935302734375	-1024.236450195312	858.3193359375	-603.92822265625	-1141.3818359375	837.6015625	-219.2936553955078	-1021.680480957031	871.7113037109375	-252.7527313232422	-964.62841796875	891.9074096679688	-497.7314758300781	-819.7554931640625	488.4751892089844	-562.6326904296875	-860.3189086914062	643.7437744140625	-576.0972290039062	-984.0455322265625	91.99726104736328	-588.311767578125	-861.3993530273438	333.8580932617188	-587.7513427734375	-760.088134765625	76.61394500732422	-522.6572265625	-830.9119262695312	76.81342315673828	-492.2224426269531	-836.8692016601562	81.56264495849609	-603.3234252929688	-1026.79541015625	99.51522064208984	-524.1986083984375	-1166.344604492188	448.5415649414062	-264.9397583007812	-1115.5166015625	699.5731201171875	-208.21875	-1311.231079101562	45.56254959106445	-294.3394470214844	-1195.447143554688	303.4464721679688	-266.2057800292969	-1093.001098632812	48.70002746582031	-322.1447448730469	-1152.59033203125	49.60280609130859	-366.8881530761719	-1180.222534179688	50.8436279296875	-261.2301940917969	-1373.298583984375	38.0835075378418	-345.0667724609375	
